<svg xmlns="http://www.w3.org/2000/svg" version="1.1" xmlns:xlink="http://www.w3.org/1999/xlink" xmlns:svgjs="http://svgjs.dev/svgjs" width="1000" height="1125" viewBox="0 0 1000 1125"><g transform="matrix(1,0,0,1,0,0)"><svg viewBox="0 0 320 360" data-background-color="#ffffff" preserveAspectRatio="xMidYMid meet" height="1125" width="1000" xmlns="http://www.w3.org/2000/svg" xmlns:xlink="http://www.w3.org/1999/xlink"><g id="tight-bounds" transform="matrix(1,0,0,1,0,0)"><svg viewBox="0 0 320 360" height="360" width="320"><rect width="320" height="360" fill="url(#d94bb85f-f666-470f-8e34-c67f2ad0bc52)" mask="url(#0860d97e-fe0f-4592-87aa-822b4ce49138)" data-fill-palette-color="tertiary"></rect><g><svg></svg></g><g><svg viewBox="0 0 320 360" height="360" width="320"><g><path xmlns="http://www.w3.org/2000/svg" d="M297.491 100.645c-12.426-21.51-112.674-79.355-137.491-79.355-24.817 0-125.028 57.845-137.491 79.355-11.591 20.02-11.591 138.726 0 158.746 12.463 21.474 112.674 79.319 137.491 79.319 24.817 0 125.064-57.845 137.491-79.355 11.591-20.02 11.591-138.69 0-158.71zM309.481 93.705c-14.461-24.998-119.469-86.295-149.481-86.295-30.012 0-135.02 61.297-149.481 86.295-14.025 24.199-14.025 148.391 0 172.59 14.461 24.998 119.469 86.295 149.481 86.295 30.012 0 135.02-61.297 149.481-86.259 14.025-24.235 14.025-148.427 0-172.626zM300.906 261.353c-12.753 22.055-115.472 81.317-140.906 81.318-25.434 0-128.153-59.298-140.906-81.354-11.881-20.529-11.881-142.178 0-162.707 12.753-22.019 115.472-81.281 140.906-81.281 25.434 0 128.153 59.298 140.906 81.318 11.881 20.529 11.881 142.178 0 162.706z" fill="url(#d94bb85f-f666-470f-8e34-c67f2ad0bc52)" fill-rule="nonzero" stroke="none" stroke-width="1" stroke-linecap="butt" stroke-linejoin="miter" stroke-miterlimit="10" stroke-dasharray="" stroke-dashoffset="0" font-family="none" font-weight="none" font-size="none" text-anchor="none" style="mix-blend-mode: normal" data-fill-palette-color="tertiary"></path></g><g transform="matrix(1,0,0,1,93.92691481011595,90)"><svg viewBox="0 0 132.1461703797681 180" height="180" width="132.1461703797681"><g><svg viewBox="0 0 132.1461703797681 180" height="180" width="132.1461703797681"><g><svg viewBox="0 0 132.1461703797681 180" height="180" width="132.1461703797681"><g><svg viewBox="0 0 132.1461703797681 180" height="180" width="132.1461703797681"><g id="textblocktransform"><svg viewBox="0 0 132.1461703797681 180" height="180" width="132.1461703797681" id="textblock"><g><svg viewBox="0 0 132.1461703797681 180" height="180" width="132.1461703797681"><g transform="matrix(1,0,0,1,0,0)"><svg width="132.1461703797681" viewBox="3.759999990463257 -36.483333587646484 27.041019439697266 36.83333206176758" height="180" data-palette-color="#81df8c"><path d="M10.9-3.15L10.9-3.15Q10.9-1.7 9.88-0.68 8.85 0.35 7.4 0.35 5.95 0.35 4.93-0.68 3.9-1.7 3.9-3.15 3.9-4.6 3.8-17.7 3.7-30.8 3.85-32.25L3.85-32.25Q3.9-33.7 4.95-34.68 6-35.65 7.45-35.65L7.45-35.65Q7.7-35.65 7.95-35.6L7.95-35.6Q8.05-35.6 8.2-35.65L8.2-35.65Q14.3-36.65 17.75-36.45L17.75-36.45Q24.55-36 28.05-31.7L28.05-31.7Q30.75-28.4 30.8-24.65 30.85-20.9 28.45-18.35L28.45-18.35Q26.5-16.2 23.55-15 20.6-13.8 17.55-13.65L17.55-13.65Q16.55-13.6 15.4-13.65 14.25-13.7 12.63-13.85 11-14 10.8-14.05L10.8-14.05Q10.9-6.5 10.9-3.15L10.9-3.15ZM17.25-20.65L17.25-20.65Q19.1-20.7 20.75-21.38 22.4-22.05 23.2-23L23.2-23Q23.6-23.45 23.75-23.83 23.9-24.2 23.68-25.25 23.45-26.3 22.65-27.3L22.65-27.3Q21.05-29.25 17.3-29.45L17.3-29.45Q14.8-29.6 10.8-29L10.8-29Q10.75-25.65 10.75-21.05L10.75-21.05 10.8-21.05 13.15-20.8Q14.45-20.7 15.4-20.65 16.35-20.6 17.25-20.65L17.25-20.65Z" opacity="1" transform="matrix(1,0,0,1,0,0)" fill="#81df8c" class="wordmark-text-0" data-fill-palette-color="quaternary" id="text-0"></path></svg></g></svg></g></svg></g></svg></g><g></g></svg></g></svg></g></svg></g></svg></g><defs></defs><mask id="0860d97e-fe0f-4592-87aa-822b4ce49138"><g id="SvgjsG1509"><svg viewBox="0 0 320 360" height="360" width="320"><g><svg></svg></g><g><svg viewBox="0 0 320 360" height="360" width="320"><g><path xmlns="http://www.w3.org/2000/svg" d="M297.491 100.645c-12.426-21.51-112.674-79.355-137.491-79.355-24.817 0-125.028 57.845-137.491 79.355-11.591 20.02-11.591 138.726 0 158.746 12.463 21.474 112.674 79.319 137.491 79.319 24.817 0 125.064-57.845 137.491-79.355 11.591-20.02 11.591-138.69 0-158.71zM309.481 93.705c-14.461-24.998-119.469-86.295-149.481-86.295-30.012 0-135.02 61.297-149.481 86.295-14.025 24.199-14.025 148.391 0 172.59 14.461 24.998 119.469 86.295 149.481 86.295 30.012 0 135.02-61.297 149.481-86.259 14.025-24.235 14.025-148.427 0-172.626zM300.906 261.353c-12.753 22.055-115.472 81.317-140.906 81.318-25.434 0-128.153-59.298-140.906-81.354-11.881-20.529-11.881-142.178 0-162.707 12.753-22.019 115.472-81.281 140.906-81.281 25.434 0 128.153 59.298 140.906 81.318 11.881 20.529 11.881 142.178 0 162.706z" fill="white" fill-rule="nonzero" stroke="none" stroke-width="1" stroke-linecap="butt" stroke-linejoin="miter" stroke-miterlimit="10" stroke-dasharray="" stroke-dashoffset="0" font-family="none" font-weight="none" font-size="none" text-anchor="none" style="mix-blend-mode: normal"></path></g><g transform="matrix(1,0,0,1,93.92691481011595,90)"><svg viewBox="0 0 132.1461703797681 180" height="180" width="132.1461703797681"><g><svg viewBox="0 0 132.1461703797681 180" height="180" width="132.1461703797681"><g><svg viewBox="0 0 132.1461703797681 180" height="180" width="132.1461703797681"><g><svg viewBox="0 0 132.1461703797681 180" height="180" width="132.1461703797681"><g id="SvgjsG1508"><svg viewBox="0 0 132.1461703797681 180" height="180" width="132.1461703797681" id="SvgjsSvg1507"><g><svg viewBox="0 0 132.1461703797681 180" height="180" width="132.1461703797681"><g transform="matrix(1,0,0,1,0,0)"><svg width="132.1461703797681" viewBox="3.759999990463257 -36.483333587646484 27.041019439697266 36.83333206176758" height="180" data-palette-color="#81df8c"></svg></g></svg></g></svg></g></svg></g><g></g></svg></g></svg></g></svg></g></svg></g><defs><mask></mask></defs></svg></g></mask><linearGradient x1="0" x2="1" y1="0.578" y2="0.595" id="d94bb85f-f666-470f-8e34-c67f2ad0bc52"><stop stop-color="#6ee2f5" offset="0"></stop><stop stop-color="#6454f0" offset="1"></stop></linearGradient></svg><rect width="320" height="360" fill="none" stroke="none" visibility="hidden"></rect></g></svg></g></svg>